<?xml version="1.0" standalone="no"?>
<!DOCTYPE svg PUBLIC "-//W3C//DTD SVG 1.1//EN" "http://www.w3.org/Graphics/SVG/1.1/DTD/svg11.dtd" >
<svg xmlns="http://www.w3.org/2000/svg">
<metadata>Generated by IcoMoon</metadata>
<defs>
<font id="icomoon" horiz-adv-x="1024">
<font-face units-per-em="1024" ascent="896" descent="-128" />
<missing-glyph horiz-adv-x="1024" />
<glyph unicode="&#x20;" d="" />
<glyph unicode="&#x78;" glyph-name="print" horiz-adv-x="1001" d="M281 627q-27-1-53-1h-83q-18 0-36.5-6t-32.5-18.5-23-32-9-45.5v-76h912v41q0 16-0.5 30t-0.5 18q0 13-5 29t-17 29.5-31.5 22.5-49.5 9h-133v-97h-438v97zM955 394v-52q0-23 0.5-52t0.5-58-10.5-47.5-26-30-33-16-31.5-4.5q-14-1-29.5-0.5t-29.5 0.5h-32l-45 128h-439l-44-128h-63q-20 0-45 1-25 0-41 9.5t-25.5 23-13.5 29.5-4 30v167h911zM163 331q-12 0-21-8.5t-9-21.5 9-21.5 21-8.5q13 0 22 8.5t9 21.5-9 21.5-22 8.5zM316 207q-8-26-14-48-5-19-10.5-37t-7.5-25-3-15 1-14.5 9.5-10.5 21.5-4h365q23 0 34 12t2 38q-5 13-9.5 30.5t-9.5 34.5q-5 19-11 39h-368zM336 582v228q0 11 2.5 23t10 21.5 20.5 15.5 34 6h188q31 0 51.5-14.5t20.5-52.5v-227h-327z" />
<glyph unicode="&#x343a;" glyph-name="date" horiz-adv-x="1000" d="M844-85h-688q-26 0-44 18.5t-18 44.5v687q0 26 18 44.5t44 18.5h63v-32q0-38 27.5-65.5t66-27.5 66 27.5 27.5 65.5v32h188v-32q0-38 27.5-65.5t66-27.5 66 27.5 27.5 65.5v32h63q26 0 44-18.5t18-44.5v-687q0-26-18-44.5t-44-18.5zM844 509h-688v-531h688v531zM312 353h-93v93h93v-93zM312 196h-93v94h93v-94zM312 40h-93v94h93v-94zM469 353h-94v93h94v-93zM469 196h-94v94h94v-94zM469 40h-94v94h94v-94zM625 353h-94v93h94v-93zM625 196h-94v94h94v-94zM625 40h-94v94h94v-94zM781 353h-93v93h93v-93zM781 196h-93v94h93v-94zM781 40h-93v94h93v-94zM686.5 634q-25.5 0-43.5 18t-18 44v64q0 25 18 43.5t43.5 18.5 43.5-18.5 18-43.5v-64q0-26-18-44t-43.5-18zM311.5 634q-25.5 0-43.5 18t-18 44v64q0 25 18 43.5t43.5 18.5 43.5-18.5 18-43.5v-64q0-26-18-44t-43.5-18z" />
<glyph unicode="&#x343e;" glyph-name="set" horiz-adv-x="1000" d="M884 498l-59 7q-9 32-26 62l38 46q11 14 9 33t-15 33l-58 58q-16 16-38 16-16 0-28-10l-46-37q-30 16-63 26l-6 58q-2 18-16.5 30.5t-34.5 12.5h-82q-20 0-34.5-12.5t-16.5-30.5l-6-58q-33-10-63-26l-46 37q-12 10-28 10-22 0-38-16l-58-58q-13-14-15-33t9-33l38-46q-17-30-26-62l-59-7q-18-2-30.5-16.5t-12.5-34.5v-82q0-19 12.5-34t30.5-17l59-6q9-32 26-62l-38-46q-11-14-9-33t15-33l58-58q16-16 38-16 16 0 28 10l46 37q30-16 63-26l6-59q2-18 16.5-30t34.5-12h82q20 0 34.5 12t16.5 30l6 59q33 10 63 26l45-37q13-10 29-10 22 0 38 16l58 58q13 14 15 33t-9 33l-38 46q17 30 26 62l59 6q18 2 30.5 17t12.5 34v82q0 20-12.5 34.5t-30.5 16.5zM886 365q0-10-6-11l-87-9-3-13q-11-41-32-78l-7-12 54-68q4-5-3-12l-58-58q-4-4-9-4-2 0-3 1l-68 55-12-7q-36-22-77-33l-14-3-9-87q-1-6-11-6h-82q-10 0-11 6l-9 87-14 3q-41 11-77 33l-12 7-68-55q-1-1-3-1-5 0-9 4l-58 58q-7 7-3 12l54 68-7 12q-21 37-32 78l-3 13-87 9q-6 1-6 11v82q0 11 6 11l87 9 3 14q11 41 32 78l7 12-54 67q-4 5 3 12l58 58q4 4 9 4h3l68-55 12 7q36 22 77 32l14 4 9 86q1 6 11 6h82q10 0 11-6l9-86 14-4q41-10 77-32l12-7 68 55h3q5 0 9-4l58-58q7-7 3-12l-54-67 7-12q21-37 32-78l3-14 87-9q6 0 6-11v-82zM500 540q-55 0-94.5-39t-39.5-94.5 39.5-95 94.5-39.5 94.5 39.5 39.5 95-39.5 94.5-94.5 39zM500 313q-39 0-66.5 27.5t-27.5 66 27.5 66 66.5 27.5 66.5-27.5 27.5-66-27.5-66-66.5-27.5z" />
<glyph unicode="&#xe602;" glyph-name="snow" horiz-adv-x="1155" d="M1057 536h-368l185 318q15 22 7 52.5t-35 41.5q-22 16-52.5 8t-41.5-35l-185-318-183 318q-9 28-37 36.5t-54-6.5-33.5-43.5 7.5-54.5l183-317-367-1q-24 6-45-15.5t-19-49.5q1-27 21.5-49.5t46.5-20.5h368l-185-318q-15-22-7-52.5t34-42.5q35-17 72 5 20 12 23 23l184 318 184-318q9-28 37-37t54 7q26 15 33.5 43.5t-7.5 54.5l-183 317 367 1q11-3 32 9 27 16 39 59-7 27-28.5 48t-46.5 19z" />
<glyph unicode="&#xe606;" glyph-name="correct" d="M378 46q-22 0-38 15l-319 311q-16 16-16 38t16 37.5 38.5 15.5 38.5-16l280-274 548 535q16 15 38.5 15t38-15.5 15.5-37.5-15-37l-586-572q-16-15-39-15v0z" />
<glyph unicode="&#xe607;" glyph-name="plus-customer" d="M519 497q58 44 58 114 0 60-45 102.5t-108 42.5-108-42.5-45-102.5q0-71 59-115-71-27-115-88t-44-136v-26q0-10 7-17t18-7h459q10 0 17.5 7t7.5 17v26q0 76-44.5 137t-116.5 88zM322 611.5q0 40.5 30 69t71.5 28.5 71.5-28.5 30-69.5q0-39-29-67t-71-29h-3q-41 0-70.5 28t-29.5 68.5zM230 281q0 79 54 131t138 53h5q83 0 136-52t53-132h-386zM853 548h-88v90h-60v-90h-89v-59h89v-89h60v89h88v59z" />
<glyph unicode="&#xe608;" glyph-name="down-triangle" d="M1004 645q18 22 17.5 46t-18.5 43.5-44 19.5h-895q-27 0-45.5-19.5t-18-43.5 18.5-46l447-448q19-20 44.5-19.5t45.5 19.5z" />
<glyph unicode="&#xe610;" glyph-name="Role" d="M825 846q-40-13-77-13-114 0-204 61l-32 22-32-22q-90-61-204-61-37 0-77 13l-71 22v-410q0-60 41-134 40-72 112-146 65-66 137-116 28-19 52-32 18-10 38-10v0q21 0 39 10 24 14 52 34 74 51 139 116 74 75 115 146 43 74 43 132v410zM789 458q0-34-31-86-34-60-99-125-59-58-125-105-13-9-26-17l-26 16q-63 44-121 103-62 64-96 125-30 53-30 89v279q21-3 41-3 73 0 143 21 49 15 93 40 44-25 93-40 70-21 143-21 20 0 41 3v-279zM512 713q-70 0-119.5-45.5t-49.5-110.5q0-50 32-91t83-56v-138q0-20 16-34.5t38-14.5 38 14.5 16 34.5v138q51 15 83 56t32 91q0 65-49.5 110.5t-119.5 45.5zM512 500q-26 0-44 17t-18 40.5 18 40 44 16.5 44-16.5 18-40-18-40.5-44-17z" />
<glyph unicode="&#xe611;" glyph-name="circle" d="M514.5-64q-89.5 0-171 35t-141 94-94.5 141-35 171.5 35 171 94.5 141 141 94.5 171 35 171.5-35 141-94.5 94-141 35-171-35-171.5-94-141-141-94-171.5-35zM514.5 738q-97.5 0-181-48t-131.5-131.5-48-181.5 48-181 131.5-131.5 181-48.5 181 48.5 132 131.5 48.5 181-48.5 181.5-132 131.5-181 48z" />
<glyph unicode="&#xe612;" glyph-name="new-edit" d="M790-62h-553q-38 0-65 27t-27 66v705q0 38 27 65.5t65 27.5h553q38 0 65-27.5t27-65.5v-292h-62v292q0 13-9 22t-21 9h-553q-13 0-22-9t-9-22v-705q0-13 9-22t22-9h553q12 0 21 9t9 21v245h62v-245q0-38-27-65t-65-27zM329 644h368v-30h-368v30zM713 598h-399v62h399v-62zM344 629v0zM329 522h368v-31h-368v31zM713 475h-399v62h399v-62zM344 506v0zM329 399h368v-31h-368v31zM713 353h-399v61h399v-61zM344 383v0zM688 121q-17 0-30 11t-16 28l-10 62 239 327q13 20 37 20 15 0 27-9l49-36q16-11 19-30t-8-35l-238-328-62-9q-4-1-7-1zM665 214l7-49q2-13 16-13h2l49 8 231 317q9 13-4 22l-49 36q-4 3-9 3-8 0-13-7zM888 491l28-88-29-9-28 87zM742 183q-19 0-33 10-19 14-25 42-3 13-2 24l30-1q0-8 2-18 4-16 13-22 12-9 39 1l11-29q-19-7-35-7z" />
<glyph unicode="&#xe615;" glyph-name="checked" d="M973 845v-922h-922v922h922zM1024 896h-1024v-1024h1024v1024zM416 181l448 473 32-34-480-506-288 304 32 34z" />
<glyph unicode="&#xe627;" glyph-name="plus" d="M580 5q0-28-20-48t-48-20v0q-28 0-48 20t-20 48v759q0 28 20 48t48 20v0q28 0 48-20t20-48v-759zM892 453q28 0 48-20t20-48v0q0-29-20-49t-48-20h-759q-29 0-49 20t-20 49v0q0 28 20 48t49 20h759z" />
<glyph unicode="&#xe628;" glyph-name="close" d="M512 896q-138 0-256-69t-187-187-69-256 69-256 187-187 256-69 256 69 187 187 69 256-69 256-187 187-256 69zM512-55q-89 0-170 35t-140 94-94 140-35 170 35 170 94 140 140 94 170 35 170-35 140-94 94-140 35-170-35-170-94-140-140-94-170-35zM757 629q-11 11-25.5 11t-25.5-11l-194-194-194 194q-11 11-25.5 11t-25.5-11-11-25.5 11-25.5l194-194-194-194q-11-11-11-25.5t11-25.5 25.5-11 25.5 11l194 194 194-194q11-11 25.5-11t25.5 11 11 25.5-11 25.5l-194 194 194 194q11 11 11 25.5t-11 25.5z" />
<glyph unicode="&#xe629;" glyph-name="drop-up" d="M513 646l-449-393zM537 667q9-10 8-23t-11-22l-449-394q-10-8-23-7t-22 10.5-8 23 11 22.5l449 393q9 8 21 8 14 0 24-11zM522 646l449-393zM544 670l448-393q10-9 11-22.5t-7.5-23.5-22-10.5-23.5 7.5l-449 394q-10 9-10.5 22t7.5 23q10 11 24 11 12 0 22-8z" />
<glyph unicode="&#xe62a;" glyph-name="square-prev" d="M870 980h-716q-64 0-109-45t-45-109v-716q0-64 45-109t109-45h716q64 0 109 45t45 109v716q0 64-45 109t-109 45zM692 663l-293-206v-2l293-181v-52l-360 229v10l360 253v-51z" />
<glyph unicode="&#xe62b;" glyph-name="square-next" d="M154-44h716q64 0 109 45t45 109v716q0 64-45 109t-109 45h-716q-64 0-109-45t-45-109v-716q0-64 45-109t109-45zM332 273l293 206v2l-293 181v52l360-229v-10l-360-253v51z" />
<glyph unicode="&#xe62e;" glyph-name="add" d="M843 848h-652q-31 0-53.5-20.5t-22.5-49.5v-683q0-30 22.5-50.5t53.5-20.5h433v66h-433q-9 0-9 5v683q0 4 9 4h652q8 0 8-4v-447h68v447q0 29-22.5 49.5t-53.5 20.5zM726 665h-384v-63h384v63zM726 531h-384v-63h384v63zM342 335h231v63h-231v-63zM328 665h-93v-63h93v63zM328 531h-93v-63h93v63zM235 335h93v63h-93v-63zM854 221h-57v62q0 10-7 18t-21 9h-3q-13 0-20.5-8t-7.5-19v-62h-60q-13 0-21.5-7.5t-8.5-20.5q0-33 29-33h61v-67q-1-15 7-23t22-8q13 0 21 9 9 9 9 24l1 65h55q14 0 23 8.5t9 22.5q0 13-8 21-9 9-23 9z" />
<glyph unicode="&#xe62f;" glyph-name="edit" d="M768-60h-575q-40 0-68 28t-28 67v639q0 40 28 68t68 28h447q13 0 22.5-9.5t9.5-22.5-9.5-22.5-22.5-9.5h-447q-14 0-23-9.5t-9-22.5v-639q0-13 9-22.5t23-9.5h575q13 0 22 9.5t9 22.5v511q0 14 9.5 23t23 9 22.5-9 9-23v-511q0-39-28-67t-67-28v0zM580 451q-13 0-22.5 9t-9.5 22.5 9 22.5l318 318q9 9 22.5 9t22.5-9.5 9-22.5-9-23l-318-317q-9-9-22-9v0zM448 451h-192q-13 0-22 9t-9 22.5 9 23 22 9.5h192q13 0 22.5-9.5t9.5-23-9.5-22.5-22.5-9v0zM640 259h-384q-13 0-22 9.5t-9 22.5 9 22.5 22 9.5h384q13 0 22.5-9.5t9.5-22.5-9.5-22.5-22.5-9.5v0z" />
<glyph unicode="&#xe635;" glyph-name="drop-down" d="M953.5 618q-9.5 9-22.5 9t-22-9l-398-398-397 396q-9 9-22 9t-22-9-9-22 9-22l418-419q10-9 23-9t22 9l420 421q10 9 10 22t-9.5 22z" />
<glyph unicode="&#xe636;" glyph-name="asterisk" d="M489 14h-7q-26 0-45 19t-19 45v711q0 26 19 45t45 19h7q26 0 45-19t19-45v-711q0-26-19-45t-45-19v0zM124 221l-3 6q-13 22-6.5 48t29.5 39l616 355q22 13 48 6.5t39-29.5l3-6q13-23 6-48.5t-29-38.5l-616-355q-22-13-48-6.5t-39 29.5v0zM121 640l3 6q13 23 39 29.5t48-6.5l616-355q23-13 29.5-39t-6.5-48l-3-6q-13-23-39-29.5t-48 6.5l-616 355q-23 13-29.5 38.5t6.5 48.5v0z" />
<glyph unicode="&#xe63b;" glyph-name="Contract" d="M731 569q-111 0-191-79.5t-80-191.5q0-114 79-193t192-79 192 79 79 193q3 112-77 191.5t-194 79.5v0zM731 73q-93 0-159 66t-66 159 66 158.5 159 65.5 159-65.5 66-158.5-66-159-159-66v0zM231 732h388v-62h-388v62zM231 573h310v-62h-310v62zM231 391h155v-62h-155v62zM421 104h-271v755h624v-217q7 0 32.5-1.5t32.5-1.5v251q0 12-9.5 21.5t-21.5 9.5h-693q-12 0-21.5-9.5t-9.5-21.5v-821q0-12 9.5-21.5t21.5-9.5h345q-9 11-21.5 35t-17.5 31v0 0zM886 348q-4 13-23 19l-74 12-35 66q-6 14-23.5 14t-26.5-14l-35-66-74-12q-16 0-23-19-5-15 8-27l54-50-8-78q0-15 12-27 11-11 31-4l66 35 66-35q4-4 11-4 5 0 9.5 2t6.5 2q11 12 11 27l-11 74 54 50q4 12 4 35v0zM774 294q-8-8-8-23l4-35-27 19q-4 4-12 4t-12-4l-31-15 4 31q0 19-8 23l-23 23 35 4q12 0 19 15l16 31 15-31q4-7 20-15l35-4-27-23z" />
<glyph unicode="&#xe63c;" glyph-name="job" d="M855-42h-686q-38 0-64.5 27t-26.5 64v681q0 38 26.5 64.5t64.5 26.5h136v-12h-136q-33 0-56-23t-23-56v-681q0-32 23-55t56-23h686q33 0 56 23t23 55v681q0 33-23 56t-56 23h-140v12h140q38 0 64.5-26.5t26.5-64.5v-681q0-37-26.5-64t-64.5-27zM689 99q-13 78-63 129.5t-114 51.5-114-51.5-63-129.5l-12 2q11 70 52 120.5t97 65.5q-33 12-54 41.5t-21 65.5q0 48 34 81.5t81 33.5 81-33.5 34-81.5q0-36-21-65.5t-54-41.5q56-15 97-65.5t52-120.5zM512 497q-42 0-72.5-30t-30.5-72.5 30.5-72.5 72.5-30 72.5 30 30.5 72.5-30.5 72.5-72.5 30zM575 699h-126q-20 0-34 14t-14 34v119q0 46 32.5 79t78.5 33 78.5-33 32.5-79v-119q0-20-14-34t-34-14zM512 965q-41 0-70-29t-29-70v-119q0-15 10.5-25.5t25.5-10.5h126q15 0 25.5 10.5t10.5 25.5v119q0 41-29 70t-70 29z" />
<glyph unicode="&#xe642;" glyph-name="Customer" d="M941 200l-292 146 91 132q5 7 5 16v199q0 94-66.5 159t-163 65-163-65-66.5-159v-199q0-9 6-16l93-132-304-146q-16-7-16-25v-127q0-11 8-19.5t20-8.5h835q12 0 20 8.5t8 19.5v127q0 17-15 25zM457 242l-70-30-17 64 20 10zM518 207l62-27-36-103h-61l-35 100zM578 242l67 43 21-10-17-63zM343 503v190q0 71 50 119.5t122.5 48.5 122.5-48.5 50-119.5v-190l-104-152q-5-7-5-16 0-4 1-7 2-7 8-13l-70-45-70 46q5 5 7 12 1 3 1 7 0 9-6 16zM121 157l197 94 22-84q4-13 15-19 6-2 13-2 5 0 11 2l17 7 27-78h-302v80zM900 77h-296l28 81 25-10q6-2 11-2 7 0 13 2 11 6 15 19l21 82 183-92v-80z" />
<glyph unicode="&#xe646;" glyph-name="grant-manager" d="M660 530q-2-7-18-34t-21-32-7-40 4-56q15-41 39-68l43 62q-2 4-4.5 7.5t-4 6-2.5 3.5q-5 10-5 50l8 17q13 15 28 42.5t24 48.5l9 21q11 15 17.5 29.5t7.5 25.5 0 21.5-4.5 17.5-7 12-6.5 8l-2 2q1 10 3 58t0 64q0 1-2.5 12.5t-3.5 16.5-5.5 18.5-9.5 23.5-14 24.5-21 28.5q-21 25-56 40t-58 17l-24 2h-74q-3 0-9.5-0.5t-24.5-4-34.5-9-36-17.5-33.5-28q-23-27-36-55.5t-14.5-37.5-4.5-31q-3-17-1-64t4-58q-2-1-5.5-4.5t-9-15-7-24 5-32.5 23.5-40q33-80 60-112 8-12 8-17 1-3-0.5-23.5t-5.5-26.5q-5-9-12.5-20t-26-26-36.5-17q-23-2-44-0.5t-44-1-36-11.5q-23-17-49.5-40t-60-64-41.5-73q-38-145 46-169h546v55h-85q-51-1-227.5 0.5t-196.5 5.5q-7 2-11.5 5t-7 8-3 9.5 0 12.5 1.5 13.5l3 16.5t4 17q4 29 43.5 72t68.5 62q11 7 21 10t19 4 31.5 3 46.5 5q28 5 51 18.5t37 33 21 32.5 12 27q6 20 4.5 55.5t-7.5 40.5q-5 5-21.5 32.5t-18.5 34.5l-16 40q-21 24-25.5 44.5t-0.5 27.5 8 11q6 4 4 56-2 19-1 49t9 75q4 20 18.5 36.5t31.5 25.5 35 15 28.5 8 11.5 2h54q4 0 12-1.5t28-8.5 36-15.5 30.5-25 18.5-36.5q8-46 9-75t-1-49q-2-52 4-56 5-4 8.5-11t-1-27.5-24.5-44.5l-3.5-8t-7.5-18-6-14zM956 244h-14v53q0 49-32 81.5t-83 32.5q-49 0-81-33t-32-81v-53h-15q-24 0-40.5-16t-16.5-39v-167q0-23 16.5-39.5t40.5-16.5h258q23 0 40 16.5t17 39.5v167q0 23-17 39t-41 16zM748 297q0 36 22.5 60t57.5 24q36 0 58-23.5t22-60.5v-53h-160v53zM973 28q0-11-8-18.5t-19-7.5h-236q-11 0-19 7.5t-8 18.5v154q0 10 8 17.5t19 7.5h236q11 0 19-7.5t8-17.5v-154zM828 159q-10 0-16.5-6.5t-6.5-16.5q0-14 12-19v-38q0-5 3.5-8t8.5-3 9 3 4 8v38q12 7 12 19-2 10-9 16.5t-17 6.5z" />
<glyph unicode="&#xe64c;" glyph-name="phone" d="M693 980h-362q-36 0-61-25t-25-60v-852q0-35 25.5-61t60.5-26h362q35 0 60.5 26t25.5 61v852q0 35-25 60t-61 25zM467 914h102q7 0 12-5t5-12.5-5-12-12-4.5h-102q-7 0-12 4.5t-5 12 5 12.5 12 5zM518-8q-21 0-36 15t-15 36 15 36 36 15 36-15 15-36-15-36-36-15zM738 140h-442v676h431v-676h11z" />
<glyph unicode="&#xe64d;" glyph-name="menu" d="M439 837h-197q-27 0-46.5-19.5t-19.5-46.5v-198q0-27 19.5-46.5t46.5-19.5h197q28 0 47 19.5t19 46.5v198q0 27-19 46.5t-47 19.5zM461 573q0-9-6.5-15.5t-15.5-6.5h-197q-9 0-15.5 6.5t-6.5 15.5v198q0 9 6.5 15.5t15.5 6.5h197q9 0 15.5-6.5t6.5-15.5v-198zM813 837h-198q-27 0-46.5-19.5t-19.5-46.5v-198q0-27 19.5-46.5t46.5-19.5h198q27 0 46 19.5t19 46.5v198q0 27-19 46.5t-46 19.5zM834 573q0-9-6-15.5t-15-6.5h-198q-9 0-15.5 6.5t-6.5 15.5v198q0 9 6.5 15.5t15.5 6.5h198q9 0 15-6.5t6-15.5v-198zM439 463h-197q-27 0-46.5-19t-19.5-46v-198q0-27 19.5-46.5t46.5-19.5h197q28 0 47 19.5t19 46.5v198q0 27-19 46t-47 19zM461 200q0-9-6.5-15.5t-15.5-6.5h-197q-9 0-15.5 6.5t-6.5 15.5v198q0 9 6.5 15t15.5 6h197q9 0 15.5-6t6.5-15v-198zM813 463h-198q-27 0-46.5-19t-19.5-46v-198q0-27 19.5-46.5t46.5-19.5h198q27 0 46 19.5t19 46.5v198q0 27-19 46t-46 19zM834 200q0-9-6-15.5t-15-6.5h-198q-9 0-15.5 6.5t-6.5 15.5v198q0 9 6.5 15t15.5 6h198q9 0 15-6t6-15v-198z" />
<glyph unicode="&#xe64e;" glyph-name="search" d="M1010 44v0 0 0q14-16 14-35 0-22-15-38-15-15-37-15h-1q-9 0-17.5 3t-15.5 8l-6 5-282 285q-102-72-228-72-12 0-25 1t-26 3q-37 4-84.5 21.5t-78.5 38.5q-80 51-128 136-23 39-36 83t-16 90v24q0 34 5 68 5 30 20 70.5t31 67 44.5 58.5 53.5 51q50 40 113 61 62 22 127 22 28 0 53-3 67-10 129-42 26-13 57.5-37t50.5-45q53-56 81.5-132.5t24.5-155.5q-4-131-90-236l283-285h-1zM759 566v17q0 26-7 61.5t-16 58.5q-15 41-40 76t-59 63-73 47q-27 12-68 21t-72 9q-19 0-38-2-5 0-11-1l-6-1q-31-5-70.5-21t-65.5-33q-26-18-54.5-49t-44.5-58q-42-70-46-155.5t31-159.5q13-27 38-60.5t49-53.5q23-20 60-39.5t66-27.5q73-21 148-8 39 7 75 22.5t68 39.5 57 54q26 30 43 65v0q14 27 24 66.5t12 68.5z" />
<glyph unicode="&#xe64f;" glyph-name="person" d="M531 160q1 120 106 197-27 19-23 57 2 14 6 27 2 8 8 15 127 146 107 320-10 91-76 148-57 50-139 55-113 8-187-61-68-64-72-169-5-165 112-295 5-5 5-7 13-34 2.5-60t-40.5-36q-89-32-165-78-58-35-91-73-34-40-29-95 4-47 33-72 27-22 72-38 72-24 185-33 115-10 255-4 2 0 33 2-104 80-102 200v0 0zM970 177q0 25-26 24h-17q-10 1-16 14-5 10 3 20 3 2 7.5 7t7.5 7q12 14 2 26-21 22-39 37-14 12-28-3l-8-8q-15-14-33-4-4 3-5 9-1 4-1 12v12q-1 11-5.5 15.5t-14.5 4.5q-9 1-51 0-14 0-15-15-3-21-4.5-27.5t-5.5-10.5q-14-10-28 1-2 1-12 11-17 16-33 0-15-14-31-30-13-13-1-28 3-4 9.5-11t7.5-8q6-7 0-22-3-8-14-9-21 0-24-1-20-2-21-21v-43q1-21 23-22h24q7-1 10-6 12-20-9-36-22-18-2-39l27-27q17-15 34 0 4 3 13 13 7 7 17 3 10-3 13.5-7.5t3.5-14.5q1-19 2-23 3-14 17-13h48q21 0 22 21v11q-2 20 18 27 8 3 13-3 9-9 19-16 16-11 30 2 16 15 31 30 14 15 0 30l-7 7t-7 8q-5 6-5 13.5t6 12.5q9 7 21 7 16 1 28 8 7 5 6 12v43zM774 92q-26 0-43 16t-17 42q0 24 17.5 40.5t43.5 16.5q21 0 38.5-17t17.5-37q0-26-16-43.5t-41-17.5v0 0z" />
<glyph unicode="&#xe652;" glyph-name="Bill" d="M258 613q0-9 6.5-15.5t15.5-6.5h464q9 0 15.5 6.5t6.5 15.5-6.5 15.5-15.5 6.5h-464q-9 0-15.5-6.5t-6.5-15.5zM744 501h-464q-9 0-15.5-6.5t-6.5-16 6.5-16 15.5-6.5h464q9 0 15.5 6.5t6.5 16-6.5 16-15.5 6.5zM744 362h-190q-10 0-16.5-6.5t-6.5-15.5 6.5-16 16.5-7h190q9 0 15.5 7t6.5 16-6.5 15.5-15.5 6.5zM744 228h-190q-10 0-16.5-6.5t-6.5-16 6.5-16 16.5-6.5h190q9 0 15.5 6.5t6.5 16-6.5 16-15.5 6.5zM451 383l-64-98-64 98h-41l73-108h-48v-27h62v-16h-62v-26h62v-44h35v44h62v26h-62v16h62v27h-48l73 108h-40zM834 793h-112v41q0 16-11.5 27.5t-27.5 11.5h-342q-16 0-27.5-11.5t-11.5-27.5v-41h-112q-16 0-27-10.5t-11-25.5v-658q0-15 11-25.5t27-10.5h644q16 0 27 10.5t11 25.5v658q0 15-11 25.5t-27 10.5zM347 749v79h330v-96h-330v17zM828 108h-632v641h106v-23q0-16 11.5-27t27.5-11h342q16 0 27.5 11t11.5 27v23h106v-641z" />
<glyph unicode="&#xe660;" glyph-name="Param" d="M960 377l-43 187-113 13-29 36 13 113-173 83-80-81h-47l-80 81-173-83 13-113-29-36-113-13-43-187 97-61 10-45-61-96 120-150 108 38 41-20 38-108h192l37 108 42 20 107-38 120 150-61 96 10 45zM829 180l-58-74-89 31-93-45-30-88h-95l-30 88-93 45-89-31-58 74 49 79-23 100-79 50 21 92 93 10 65 81-11 93 85 41 66-66h103l66 66 85-41-10-93 64-81 93-10 21-92-79-50-23-100zM511.5 544q-71.5 0-121.5-50.5t-50-121.5 50-121.5 121.5-50.5 121.5 50.5 50 121.5-50 121.5-121.5 50.5zM511.5 264q-44.5 0-76 31.5t-31.5 76 31.5 76.5 76 32 76-32 31.5-76.5-31.5-76-76-31.5z" />
<glyph unicode="&#xe663;" glyph-name="Log" d="M697 852v90h-51v-90h-268v90h-51v-90h-205v-832h768v832h-193zM839 71h-666v730h154v-103h51v103h269v-103h51v103h141v-730zM256 283h499v51h-499v-51zM256 474h499v51h-499v-51z" />
<glyph unicode="&#xe668;" glyph-name="Desktop" d="M956 696v-670q0-12-8-20t-19-8h-838q-11 0-19.5 8t-8.5 20v670q0 11 8.5 19.5t19.5 8.5h112v28q0 11 8 19.5t20 8.5h83q12 0 20-8.5t8-19.5v-28h335v28q0 11 8.5 19.5t19.5 8.5h84q12 0 20-8.5t8-19.5v-28h112q11 0 19-8.5t8-19.5zM901 54v614h-84v-28q0-12-8-20t-20-8h-84q-11 0-19.5 8t-8.5 20v28h-335v-28q0-12-8-20t-20-8h-83q-12 0-20 8t-8 20v28h-84v-614h782zM761 668v56h-28v-56h28zM287 668v56h-28v-56h28zM817 473v-112q0-12-8-20t-20-8h-112q-11 0-19.5 8t-8.5 20v112q0 11 8.5 19t19.5 8h112q12 0 20-8t8-19zM761 389v56h-56v-56h56zM817 249v-111q0-12-8-20t-20-8h-112q-11 0-19.5 8t-8.5 20v111q0 12 8.5 20t19.5 8h112q12 0 20-8t8-20zM761 165v56h-56v-56h56zM594 473v-112q0-12-8.5-20t-19.5-8h-112q-12 0-20 8t-8 20v112q0 11 8 19t20 8h112q11 0 19.5-8t8.5-19zM538 389v56h-56v-56h56zM594 249v-111q0-12-8.5-20t-19.5-8h-112q-12 0-20 8t-8 20v111q0 12 8 20t20 8h112q11 0 19.5-8t8.5-20zM538 165v56h-56v-56h56zM370 473v-112q0-12-8-20t-20-8h-111q-12 0-20 8t-8 20v112q0 11 8 19t20 8h111q12 0 20-8t8-19zM314 389v56h-55v-56h55zM342 277q12 0 20-8t8-20v-111q0-12-8-20t-20-8h-111q-12 0-20 8t-8 20v111q0 12 8 20t20 8h111zM314 165v56h-55v-56h55z" />
<glyph unicode="&#xe66f;" glyph-name="Statistic" d="M92-64h840q12 0 20 8t8 20-8 20-20 8h-812v812q0 12-8 20t-20 8-20-8-8-20v-840q0-12 8-20t20-8zM228 155q25 0 42.5 20t17.5 48q0 13-5 25l118 154q9-3 18-3 26 0 44 22l111-63q0-28 17.5-47.5t42-19.5 42 19.5 17.5 47.5v4l155 151q12-5 24-5 25 0 42.5 19.5t17.5 47.5-17.5 48-42.5 20-42-20-17-48q0-11 3-22l-145-142q-17 15-37 15-25 0-42-19l-114 65q-1 26-18.5 44.5t-40.5 18.5q-25 0-42.5-20t-17.5-48q0-15 6-29l-116-152q-10 5-21 5-25 0-42.5-20t-17.5-48 17.5-48 42.5-20z" />
<glyph unicode="&#xe684;" glyph-name="empty-next" d="M0 980v-1024h1022v1024h-1022zM987-9h-952v954h952v-954zM362 136l298 299 13 12 20 21-33 33-298 299-33-33 298-299-298-299 33-33z" />
<glyph unicode="&#xe68b;" glyph-name="empty-prev" d="M1022-44v1024h-1022v-1024h1022zM35 945h952v-954h-952v954zM660 800l-298-299-13-12-20-21 33-33 298-299 33 33-298 299 298 299z" />
<glyph unicode="&#xe698;" glyph-name="Employee" d="M197 672h-149q-11 0-19.5-8t-8.5-19.5 8.5-20 19.5-8.5h149q11 0 19 8.5t8 20-8 19.5-19 8zM197 503h-149q-11 0-19.5-8t-8.5-19.5 8.5-19.5 19.5-8h149q11 0 19 8t8 19.5-8 19.5-19 8zM197 333h-149q-11 0-19.5-8t-8.5-19.5 8.5-19.5 19.5-8h149q11 0 19 8t8 19.5-8 19.5-19 8zM568 381q-58 0-99.5 41.5t-41.5 100 41.5 100 100 41.5 100-41.5 41.5-100-41.5-100-100.5-41.5v0zM675 356q42 26 66.5 70.5t24.5 95.5q0 82-58 140t-140 58-139.5-58-57.5-140q0-51 24-94.5t65-70.5q-50-22-86-61t-52-88h61q22 51 72 82t112 31 112-31 72-82h60q-15 49-51 87.5t-85 60.5v0zM973 964h-843q-17 0-28-11t-11-27v-150h58v97q0 14 9.5 23.5t23.5 9.5h738q14 0 24-9.5t10-23.5l3-818q0-14-9.5-23.5t-23.5-9.5h-738q-14 0-24 9.5t-10 23.5v105h-61v-157q0-16 11-27.5t28-11.5h843q16 0 27.5 11.5t11.5 27.5v923q0 16-11.5 27t-27.5 11v0z" />
<glyph unicode="&#xe69d;" glyph-name="disc" d="M512 772q-109 0-201-53.5t-145.5-145.5-53.5-201 53.5-201 145.5-145.5 201-53.5 201 53.5 145.5 145.5 53.5 201-53.5 201-145.5 145.5-201 53.5v0z" />
<glyph unicode="&#xe6a3;" glyph-name="Building" d="M896-44h-768q-17 0-29.5 12.5t-12.5 30.5v661q0 18 12.5 30.5t29.5 12.5h299v234q0 18 12.5 30.5t30.5 12.5h426q18 0 30.5-12.5t12.5-30.5v-938q0-18-12.5-30.5t-30.5-12.5zM278-1h128v213q0 18-12.5 30.5t-30.5 12.5h-43q-17 0-29.5-12.5t-12.5-30.5v-213zM896 895q0 17-12.5 29.5t-29.5 12.5h-342q-17 0-29.5-12.5t-12.5-29.5v-235h-299q-18 0-30.5-12.5t-12.5-30.5v-576q0-17 12.5-29.5t30.5-12.5h64v256q0 17 12.5 29.5t30.5 12.5h128q17 0 29.5-12.5t12.5-29.5v-256h406q17 0 29.5 12.5t12.5 29.5v854zM747 84h-128q-18 0-30.5 12.5t-12.5 30.5v128q0 17 12.5 29.5t30.5 12.5h128q18 0 30.5-12.5t12.5-29.5v-128q0-18-12.5-30.5t-30.5-12.5zM747 212q0 18-12.5 30.5t-30.5 12.5h-42q-18 0-30.5-12.5t-12.5-30.5v-43q0-17 12.5-29.5t30.5-12.5h42q18 0 30.5 12.5t12.5 29.5v43zM747 361h-128q-18 0-30.5 12.5t-12.5 30.5v128q0 18 12.5 30.5t30.5 12.5h128q18 0 30.5-12.5t12.5-30.5v-128q0-18-12.5-30.5t-30.5-12.5zM747 489q0 18-12.5 30.5t-30.5 12.5h-42q-18 0-30.5-12.5t-12.5-30.5v-42q0-18 12.5-30.5t30.5-12.5h42q18 0 30.5 12.5t12.5 30.5v42zM747 639h-128q-18 0-30.5 12.5t-12.5 29.5v128q0 18 12.5 30.5t30.5 12.5h128q18 0 30.5-12.5t12.5-30.5v-128q0-17-12.5-29.5t-30.5-12.5zM747 767q0 17-12.5 29.5t-30.5 12.5h-42q-18 0-30.5-12.5t-12.5-29.5v-43q0-18 12.5-30.5t30.5-12.5h42q18 0 30.5 12.5t12.5 30.5v43zM406 361h-128q-18 0-30.5 12.5t-12.5 30.5v128q0 18 12.5 30.5t30.5 12.5h128q17 0 29.5-12.5t12.5-30.5v-128q0-18-12.5-30.5t-29.5-12.5zM406 489q0 18-12.5 30.5t-30.5 12.5h-43q-17 0-29.5-12.5t-12.5-30.5v-42q0-18 12.5-30.5t29.5-12.5h43q18 0 30.5 12.5t12.5 30.5v42z" />
<glyph unicode="&#xe6ae;" glyph-name="password" d="M836 495h-32v30q0 123-87 210t-210.5 87-210.5-87-87-210v-30h-28q-27 0-46.5-19.5t-19.5-47.5v-409q0-27 19.5-46.5t46.5-19.5h655q28 0 47.5 19.5t19.5 46.5v409q0 28-19.5 47.5t-47.5 19.5zM260 523.5v1.5q0 102 72 174t174.5 72 174.5-72 72-174v-30h-493v28.5zM851 19q0-6-4.5-10.5t-10.5-4.5h-655q-6 0-10.5 4.5t-4.5 10.5v409q0 7 4.5 11.5t10.5 4.5h655q6 0 10.5-4.5t4.5-11.5v-409zM508.5 372q-44.5 0-76-31.5t-31.5-75.5q0-52 41-85v-38q0-28 19.5-47.5t47.5-19.5h4q27 0 46.5 19.5t19.5 47.5v42q37 32 37 81 0 44-31.5 75.5t-76 31.5zM540 218l-12-8v-68q0-7-4.5-11.5t-10.5-4.5h-4q-7 0-11.5 4.5t-4.5 11.5v66l-13 8q-28 16-28 49 0 23 16.5 39.5t40 16.5 40-16.5 16.5-39.5q0-31-25-47z" />
<glyph unicode="&#xe6b6;" glyph-name="message" d="M512 0q-46 0-96 8l-224-136v227q-89 62-140.5 153.5t-51.5 195.5q0 122 68.5 225t186.5 163 257 60 257-60 186.5-163 68.5-225-68.5-225-186.5-163-257-60zM512 832q-186 0-317-112.5t-131-271.5q0-96 51.5-178.5t139.5-135.5l-2-149 151 91q55-12 108-12 122 0 225 51.5t163 140 60 192.5-60 192.5-163 140-225 51.5zM768 384q-27 0-45.5 18.5t-18.5 45.5 18.5 45.5 45.5 18.5q26 0 45-19t19-45-19-45-45-19zM512 384q-26 0-45 18.5t-19 45.5 19 45.5 45 18.5 45-19 19-45-19-45-45-19zM256 384q-26 0-45 18.5t-19 45.5 19 45.5 45 18.5 45-19 19-45-19-45-45-19z" />
<glyph unicode="&#xe6c9;" glyph-name="unauthorized" d="M511-44l-11 4q-98 39-171 85.5t-113 89-63.5 92-30 86-6.5 78.5v461l31-1q67-2 127.5 8t96.5 23.5 66 32 39 26.5 13 12l22 24 22-24q4-4 12.5-11.5t36.5-24.5 61.5-31 89-25 117.5-11v0q13 0 25 1l31 1v-461q0-42-6.5-78.5t-30-86-63.5-92-112.5-89-171.5-85.5l-11-4zM176 790v-399q0-20 0.5-34t7-43.5 18.5-53 36.5-57 59-62 89.5-61 124-59.5q69 27 124 59.5t89.5 61 59 62 36.5 57 18.5 53 7 43.5 0.5 34v399q-65 1-123 11.5t-99 28-67 32-46 30.5q-20-16-45.5-30.5t-67-32-99.5-28-123-11.5v0zM477 657l13-286h44l13 286h-70zM512 338q-17 0-28-11-13-10-13-28 0-17 13-29 11-11 28-11t30 11q11 12 11 29t-11 28q-12 11-30 11z" />
<glyph unicode="&#xe6ca;" glyph-name="organize" d="M802 659q59 0 101 42.5t42 101.5-42 102-101 43-101-42.5-42-101.5q0-12 1-17l-264-101q-25 32-62 50.5t-78 18.5q-76-2-128.5-54.5t-52.5-126.5 52.5-126.5 126.5-52.5q47 0 92 25l192-177q-24-37-24-84 0-66 46.5-112.5t111.5-46.5q67 0 113 47t46 112-46.5 112-112.5 47q-47 0-88-27l-188 174q36 49 36 107 0 19-7 50l258 100q19-28 51-45.5t68-17.5zM143 574q0 46 32.5 78.5t78.5 32.5 78.5-32.5 32.5-78.5-32.5-78.5-78.5-32.5-78.5 32.5-32.5 78.5zM763 159q0-37-26.5-63.5t-64-26.5-64 26.5-26.5 63.5 26.5 64 63.5 27q38 0 64.5-26.5t26.5-64.5zM802 879q31 0 53-22t22-53-22-53-53-22-53 22-22 53 21.5 53 53.5 22z" />
<glyph unicode="&#xe6ce;" glyph-name="account" d="M648 321q61 35 97.5 96.5t36.5 134.5q0 110-78 188.5t-188.5 78.5-188.5-78.5-78-188.5q0-72 36-133.5t96-96.5h-3q-129-39-214.5-134t-99.5-228v-3.5t1.5-8.5 4.5-11 9-9 14-4q16 0 25 9t10 18l1 9q18 145 124.5 231t258 86 259-86.5 124.5-229.5q0-2 0.5-4.5t2-8.5 4.5-11 9.5-9 14.5-4q15 0 23.5 9.5t9.5 18.5l1 9q-15 131-100 226t-212 134zM312 552q0 84 59.5 143.5t143.5 59.5 143.5-59.5 59.5-143.5-59-143.5-143.5-59.5-144 59.5-59.5 143.5z" />
<glyph unicode="&#xe700;" glyph-name="prev" d="M308 479l418-418q12-12 12-28t-12-27.5-28-11.5-27 11l-446 446q-12 11-12 27.5t12 27.5l446 446q11 12 27.5 12t28-11.5 11.5-28-12-27.5z" />
<glyph unicode="&#xe702;" glyph-name="next" d="M694 479l-418-418q-11-12-11-28t11.5-27.5 28-11.5 27.5 11l446 446q11 11 11 27.5t-11 27.5l-446 446q-11 12-27.5 12t-28-11.5-11.5-28 11-27.5z" />
<glyph unicode="&#xe72d;" glyph-name="check" d="M0 980v-1024h1024v1024h-1024zM981-1h-938v938h938v-938z" />
<glyph unicode="&#xe73f;" glyph-name="admin" d="M524 350q-126 0-215.5 87.5t-89.5 210.5 89.5 210.5 215.5 87.5 215.5-87.5 89.5-210.5-89.5-210.5-215.5-87.5zM523.5 882q-99.5 0-170-68.5t-70.5-165.5 70.5-165.5 170-68.5 170.5 68.5 71 165.5-71 165.5-170.5 68.5zM920 20q-1 113-76 221.5t-181 147.5q-28-14-69-24t-72-10v0h-1q-30 0-71 10t-68 23q-105-40-179.5-148.5t-74.5-220.5v-1q0-13 9.5-22.5t23.5-9.5v0q13 0 22.5 9.5t9.5 22.5v6q1 88 46 163t121 118.5 164 43.5 164-43.5 121-118.5 46-163v-6q0-13 9.5-22.5t22.5-9.5v0 0q14 0 23.5 9.5t9.5 22.5v2zM551 288q7 4 13 10l14 14q17 17 11.5 29t-29.5 12l-72-1q-25 0-30-12t12-30l11-11q8-7 17-12v0l-24-44q-6-10-6-21v-5q-3-10-3-20 0-9 3-18l35-119q8-29 20-29t21 28l38 122q3 9 3 18 0 11-4 21v2q0 12-6 22l-23 43z" />
<glyph unicode="&#xe74a;" glyph-name="radio-checked" d="M657 99l2 1h1zM348 99v0 0zM139 620v0 0zM954 484q-2 36-9 74-27 135-127 231-102 99-238 120-45 7-81 6-34 0-73-6-68-11-132-44-120-61-186-181-72-130-53-275 9-74 39-139 28-59 73-110 92-102 229-135 144-35 276 19 67 28 122 73 49 41 87 98 80 120 73 269zM890 411q-8-53-28-103-12-27-27-51-10-16-21-31l-1-1v-1l-1-1v1q-4-6-9-11-19-24-42-44-6-4-11-9-3-3-6-5l-1-1h-1q-12-9-24-17-29-19-61-33-49-20-101-27-26-4-52.5-4t-52.5 4q-53 7-101 27-28 12-53 28-17 10-33 22l-2 1q-7 5-12 10-23 20-44 44-5 5-9 11l-3 3q-2 3-3 4-9 12-18 26-17 27-30 58-20 48-27 99-3 27-3 54t3 54q7 51 27 98 11 27 26 51 8 13 17 25 3 5 8 11l1 2q22 27 47 50 11 10 23 20 1 0 1 1l6 4q7 5 15 10 29 19 62 33 48 20 101 28 53 6 108-1 51-7 98-26 27-12 52-27 17-10 32-22 1 0 1.5-0.5l1.5-1.5q6-5 11-9 30-25 54-55 1-1 4-5 2-2 2-3 9-12 18-25 18-28 31-60 15-36 23-74 2-12 4-23 3-27 3-54t-3-54zM812 224h1q1 1 1 2v0l1 1q-1 0-3-3zM294 464.5q0-86.5 61.5-148t148-61.5 147.5 61.5 61 148-61 147.5-147.5 61-148-61-61.5-147.5z" />
<glyph unicode="&#xe760;" glyph-name="reduce" d="M96 340q-13 0-22.5 9.5t-9.5 22.5v0q0 13 9.5 22.5t22.5 9.5h832q13 0 22.5-9.5t9.5-22.5v0q0-13-9.5-22.5t-22.5-9.5h-832z" />
<glyph unicode="&#xe766;" glyph-name="right-triangle" d="M284 920l7-5 501-391q27-22 27-56 0-33-27-55l-509-398q-12-8-28-8-21 0-35.5 14t-14.5 34v0 826q0 20 14.5 34t35.5 14q16 0 29-9v0z" />
<glyph unicode="&#xe900;" glyph-name="device" d="M449.164 809.891c13.964-13.964 20.945-30.255 20.945-51.2v-262.982c0-20.945-6.982-37.236-20.945-51.2s-30.255-20.945-51.2-20.945h-262.982c-20.945 0-37.236 6.982-51.2 20.945s-18.618 32.582-18.618 53.527v262.982c0 20.945 6.982 37.236 20.945 51.2s30.255 18.618 48.873 18.618h262.982c20.945 0 37.236-6.982 51.2-20.945zM449.164 321.164c13.964-13.964 20.945-30.255 20.945-51.2v-262.982c0-20.945-6.982-37.236-20.945-51.2s-30.255-20.945-51.2-20.945h-262.982c-20.945 0-37.236 6.982-51.2 20.945s-18.618 32.582-18.618 51.2v262.982c0 20.945 6.982 37.236 20.945 51.2s30.255 20.945 51.2 20.945h262.982c18.618 0 34.909-6.982 48.873-20.945zM134.982 761.018v-262.982h262.982v262.982h-262.982zM134.982 269.964v-262.982h262.982v262.982h-262.982zM937.891 809.891c13.964-13.964 20.945-30.255 20.945-51.2v-262.982c0-20.945-6.982-37.236-20.945-51.2s-30.255-20.945-51.2-20.945h-260.655c-20.945 0-37.236 6.982-51.2 20.945s-20.945 30.255-20.945 51.2v265.309c0 20.945 6.982 37.236 20.945 51.2s30.255 20.945 51.2 20.945h262.982c18.618-2.327 34.909-9.309 48.873-23.273zM937.891 321.164c13.964-13.964 20.945-30.255 20.945-51.2v-262.982c0-20.945-6.982-37.236-20.945-51.2s-30.255-20.945-51.2-20.945h-260.655c-20.945 0-37.236 6.982-51.2 20.945s-20.945 30.255-20.945 51.2v262.982c0 20.945 6.982 37.236 20.945 51.2s30.255 20.945 51.2 20.945h262.982c18.618 0 34.909-6.982 48.873-20.945zM626.036 761.018v-262.982h262.982v262.982h-262.982zM626.036 269.964v-262.982h262.982v262.982h-262.982z" />
<glyph unicode="&#xe901;" glyph-name="Report" d="M838.533 649.37c0-16.604 13.435-30.039 30.039-30.039s30.044 13.435 30.044 30.039v152.494c0 0.005 0 0.010 0 0.015 0 16.582-13.442 30.024-30.024 30.024-0.007 0-0.014 0-0.022 0h-152.493c-16.599 0-30.039-13.435-30.039-30.039s13.44-30.044 30.039-30.044h82.519l-262.999-263.148-81.377 81.382c-5.433 5.438-12.941 8.801-21.235 8.801-0.001 0-0.002 0-0.003 0h-0.056c-0.007 0-0.016 0-0.025 0-8.297 0-15.803-3.387-21.21-8.855l-0.003-0.003-278.932-280.346c-11.674-11.73-11.674-30.802 0.118-42.481 5.425-5.401 12.906-8.74 21.167-8.74 0.005 0 0.010 0 0.015 0h-0.001c0.017 0 0.037 0 0.057 0 8.306 0 15.822 3.387 21.24 8.855l0.002 0.002 257.695 258.985 81.321-81.321c11.269-11.264 31.217-11.264 42.476 0l281.697 281.851v-77.435h-0.010zM774.088 513.761h125.901v-577.669h-125.901v577.669zM563.661 394.977h125.901v-458.88h-125.901v458.88zM353.229 279.055h125.901v-342.958h-125.901v342.958zM142.797 152.018h125.901v-215.926h-125.901v215.926z" />
<glyph unicode="&#xf0071;" glyph-name="exit" d="M954 401l-186 185q-6 7-16 7t-16-7l-38-38q-7-6-7-16t7-17l82-81h-373q-9 0-16-7t-7-16v-53q0-10 7-17t16-7h373l-82-81q-7-7-7-16.5t7-16.5l37-38q7-6 16.5-6t16.5 6l186 186q6 7 6 16.5t-6 16.5v0zM635 832h-501q-29 0-49.5-20.5t-20.5-49.5v-756q0-29 20.5-49.5t49.5-20.5h501q28 0 48.5 20.5t20.5 49.5v98q0 10-6.5 16.5t-16.5 6.5h-50q-10 0-17-6.5t-7-16.5v-37q0-15-10-25t-24-10h-378q-15 0-25 10.5t-10 24.5v635q0 14 10 24.5t25 10.5h378q14 0 24-10t10-25v-38q0-10 7-16.5t17-6.5h50q10 0 16.5 6.5t6.5 16.5v98q0 29-20.5 49.5t-48.5 20.5v0z" />
</font>
</defs>
</svg>
